<mxfile host="app.diagrams.net" agent="Mozilla/5.0 (X11; Linux x86_64; rv:130.0) Gecko/20100101 Firefox/130.0" version="24.7.12">
  <diagram name="Page-1" id="ZZ8q9-yptv7bQm0k6y6k">
    <mxGraphModel dx="880" dy="481" grid="0" gridSize="10" guides="1" tooltips="1" connect="1" arrows="1" fold="1" page="1" pageScale="1" pageWidth="850" pageHeight="1100" math="0" shadow="0">
      <root>
        <mxCell id="0" />
        <mxCell id="1" parent="0" />
        <mxCell id="yTRN8KXDLpD-T7E1okME-1" value="" style="rounded=0;whiteSpace=wrap;html=1;" parent="1" vertex="1">
          <mxGeometry x="80" y="90" width="500" height="100" as="geometry" />
        </mxCell>
        <mxCell id="yTRN8KXDLpD-T7E1okME-2" value="&lt;font style=&quot;font-size: 30px;&quot;&gt;Web App Module&lt;br&gt;&lt;/font&gt;" style="text;html=1;align=center;verticalAlign=middle;resizable=0;points=[];autosize=1;strokeColor=none;fillColor=none;" parent="1" vertex="1">
          <mxGeometry x="207" y="31" width="247" height="48" as="geometry" />
        </mxCell>
        <mxCell id="yTRN8KXDLpD-T7E1okME-3" value="&lt;div&gt;&lt;font style=&quot;font-size: 16px;&quot;&gt;Data Collector and ETL process&lt;/font&gt;&lt;br&gt;&lt;/div&gt;python inbuild function like threading and other handles" style="rounded=0;whiteSpace=wrap;html=1;" parent="1" vertex="1">
          <mxGeometry x="100" y="105" width="230" height="70" as="geometry" />
        </mxCell>
        <mxCell id="yTRN8KXDLpD-T7E1okME-4" value="&lt;div style=&quot;font-size: 20px;&quot;&gt;Visualization Module&lt;br&gt;&lt;/div&gt;&lt;div style=&quot;&quot;&gt;&lt;strong&gt;Python module matplotlib&amp;nbsp; handles visualization process&lt;br&gt;&lt;/strong&gt;&lt;/div&gt;" style="rounded=0;whiteSpace=wrap;html=1;" parent="1" vertex="1">
          <mxGeometry x="350" y="105" width="210" height="70" as="geometry" />
        </mxCell>
        <mxCell id="yTRN8KXDLpD-T7E1okME-6" value="&lt;div&gt;&lt;font style=&quot;font-size: 18px;&quot;&gt;Database Module&lt;/font&gt;&lt;/div&gt;&lt;div&gt;mysql stores raw and processed data&lt;br&gt;&lt;br&gt;&lt;style type=&quot;text/css&quot;&gt;p { color: #000000; line-height: 115%; text-align: left; orphans: 2; widows: 2; margin-bottom: 0.1in; direction: ltr; background: transparent }p.western { font-family: &quot;Arial&quot;, serif; font-size: 11pt; so-language: en-US }p.cjk { font-family: &quot;Arial&quot;; font-size: 11pt; so-language: zh-CN }p.ctl { font-family: &quot;Arial&quot;; font-size: 11pt; so-language: hi-IN }a:link { color: #000080; text-decoration: underline }&lt;/style&gt;&lt;/div&gt;" style="rounded=0;whiteSpace=wrap;html=1;" parent="1" vertex="1">
          <mxGeometry x="100" y="270" width="390" height="60" as="geometry" />
        </mxCell>
        <mxCell id="yTRN8KXDLpD-T7E1okME-17" value="&lt;div style=&quot;font-size: 18px;&quot;&gt;&lt;span&gt;&lt;font style=&quot;font-size: 19px;&quot;&gt;Triggering and Management Module&lt;/font&gt;&lt;/span&gt;&lt;br&gt;&lt;/div&gt;&lt;div style=&quot;font-size: 13px;&quot;&gt;&lt;font style=&quot;font-size: 13px;&quot;&gt;Airflow Triggers ETL and Acquisition&lt;font style=&quot;font-size: 13px;&quot;&gt;&lt;br&gt;&lt;/font&gt;&lt;/font&gt;&lt;/div&gt;&lt;div style=&quot;font-size: 10px;&quot;&gt;&lt;font style=&quot;font-size: 10px;&quot;&gt;&lt;br&gt;&lt;/font&gt;&lt;/div&gt;" style="rounded=0;whiteSpace=wrap;html=1;" parent="1" vertex="1">
          <mxGeometry x="640" y="164" width="150" height="175" as="geometry" />
        </mxCell>
        <mxCell id="yTRN8KXDLpD-T7E1okME-19" value="" style="endArrow=classic;startArrow=classic;html=1;rounded=0;dashed=1;exitX=1;exitY=0.5;exitDx=0;exitDy=0;entryX=0;entryY=0.5;entryDx=0;entryDy=0;" parent="1" source="yTRN8KXDLpD-T7E1okME-6" target="yTRN8KXDLpD-T7E1okME-17" edge="1">
          <mxGeometry width="50" height="50" relative="1" as="geometry">
            <mxPoint x="400" y="280" as="sourcePoint" />
            <mxPoint x="450" y="230" as="targetPoint" />
          </mxGeometry>
        </mxCell>
        <mxCell id="yTRN8KXDLpD-T7E1okME-20" value="" style="endArrow=classic;startArrow=classic;html=1;rounded=0;dashed=1;exitX=0.516;exitY=1.02;exitDx=0;exitDy=0;entryX=0;entryY=0.5;entryDx=0;entryDy=0;exitPerimeter=0;" parent="1" source="yTRN8KXDLpD-T7E1okME-1" target="yTRN8KXDLpD-T7E1okME-17" edge="1">
          <mxGeometry width="50" height="50" relative="1" as="geometry">
            <mxPoint x="500" y="310" as="sourcePoint" />
            <mxPoint x="650" y="250" as="targetPoint" />
          </mxGeometry>
        </mxCell>
        <mxCell id="yTRN8KXDLpD-T7E1okME-21" value="Handles Service" style="text;html=1;align=center;verticalAlign=middle;resizable=0;points=[];autosize=1;strokeColor=none;fillColor=none;" parent="1" vertex="1">
          <mxGeometry x="490" y="225" width="110" height="30" as="geometry" />
        </mxCell>
        <mxCell id="-apRGonFybBq35Q8NU8_-1" value="" style="endArrow=classic;startArrow=classic;html=1;rounded=0;entryX=0.426;entryY=0.99;entryDx=0;entryDy=0;entryPerimeter=0;dashed=1;" edge="1" parent="1" source="yTRN8KXDLpD-T7E1okME-6" target="yTRN8KXDLpD-T7E1okME-1">
          <mxGeometry width="50" height="50" relative="1" as="geometry">
            <mxPoint x="399" y="282" as="sourcePoint" />
            <mxPoint x="449" y="232" as="targetPoint" />
          </mxGeometry>
        </mxCell>
      </root>
    </mxGraphModel>
  </diagram>
</mxfile>
